<svg width="20" height="17" viewBox="0 0 20 17" fill="none" xmlns="http://www.w3.org/2000/svg">
<path fill-rule="evenodd" clip-rule="evenodd" d="M20 2.59038C19.2647 2.91702 18.4734 3.137 17.6435 3.23633C18.4908 2.72836 19.1414 1.92442 19.4474 0.966482C18.6554 1.43712 17.7761 1.77776 16.8422 1.96242C16.0936 1.16514 15.0263 0.666504 13.8471 0.666504C11.5812 0.666504 9.74401 2.50371 9.74401 4.76956C9.74401 5.09087 9.78068 5.40419 9.85068 5.70483C6.44024 5.53418 3.41711 3.90029 1.39324 1.41779C1.03993 2.02375 0.837944 2.72837 0.837944 3.48032C0.837944 4.90356 1.56123 6.15948 2.66316 6.89543C1.98987 6.87409 1.35791 6.68944 0.803945 6.38213V6.43345C0.803945 8.42199 2.21918 10.0799 4.09506 10.4579C3.75108 10.5512 3.38844 10.6018 3.01447 10.6018C2.74982 10.6018 2.4925 10.5758 2.24185 10.5278C2.76381 12.1577 4.27971 13.3443 6.07493 13.3777C4.67102 14.4776 2.90181 15.1342 0.979267 15.1342C0.647289 15.1342 0.320645 15.1149 0 15.0762C1.81588 16.2401 3.9724 16.9201 6.28958 16.9201C13.8364 16.9201 17.9635 10.6678 17.9635 5.24619C17.9635 5.06821 17.9601 4.89089 17.9515 4.71557C18.7541 4.13561 19.45 3.41299 20 2.59038Z" fill="#FFFCF6"/>
</svg>
